Coordinates
version=1
nRows=7
nColumns=40
inDegrees=yes

Units are S.I. units (second, meters, Newtons, ...)
If the header above contains a line with 'inDegrees', this indicates whether rotational values are in degrees (yes) or radians (no).

endheader
time	pelvis_tilt	pelvis_list	pelvis_rotation	pelvis_tx	pelvis_ty	pelvis_tz	hip_flexion_r	hip_adduction_r	hip_rotation_r	knee_angle_r	knee_angle_r_beta	ankle_angle_r	subtalar_angle_r	mtp_angle_r	hip_flexion_l	hip_adduction_l	hip_rotation_l	knee_angle_l	knee_angle_l_beta	ankle_angle_l	subtalar_angle_l	mtp_angle_l	lumbar_extension	lumbar_bending	lumbar_rotation	arm_flex_r	arm_add_r	arm_rot_r	elbow_flex_r	pro_sup_r	wrist_flex_r	wrist_dev_r	arm_flex_l	arm_add_l	arm_rot_l	elbow_flex_l	pro_sup_l	wrist_flex_l	wrist_dev_l
      8.75000000	    -24.39211629	     -0.29699918	   -178.06947045	      0.25439127	      0.91573668	     -0.59855006	    -21.69342808	     -9.43558275	    -20.28650066	      3.75523191	      0.06554116	     -0.76467121	      0.00000000	      0.00000000	    -20.42030414	    -11.70837101	    -19.72899700	      5.46811047	      0.09543653	     -0.94568330	      0.00000000	      0.00000000	    -27.63846212	     -3.06417866	      3.62187973	      7.13290219	    -15.09585331	     32.31199680	     22.96196514	     76.45718947	      0.00000000	      0.00000000	     15.65478380	     -8.00769311	     28.10893916	     13.33864189	     43.33506719	      0.00000000	      0.00000000
      8.75500000	    -24.38390311	     -0.26631998	   -178.03301955	      0.25454718	      0.91572978	     -0.59862807	    -21.67031416	     -9.37753048	    -20.30665761	      3.77221747	      0.06583761	     -0.85229407	      0.00000000	      0.00000000	    -20.38272790	    -11.76134075	    -19.61594622	      5.49479527	      0.09590227	     -0.87276381	      0.00000000	      0.00000000	    -27.63292770	     -3.01918344	      3.53919833	      7.52798782	    -15.49070419	     34.17414363	     22.85042121	     79.56876139	      0.00000000	      0.00000000	     15.50643047	     -8.42672759	     29.60582503	     13.75657610	     43.71185242	      0.00000000	      0.00000000
      8.76000000	    -24.39984252	     -0.37573943	   -178.05802945	      0.25466307	      0.91572208	     -0.59870546	    -21.72559481	     -9.47220235	    -20.11164276	      3.70003243	      0.06457775	     -0.73838048	      0.00000000	      0.00000000	    -20.44940291	    -11.60991611	    -19.54184799	      5.35167016	      0.09340426	     -1.02456449	      0.00000000	      0.00000000	    -27.67657614	     -3.14999697	      3.56835717	      7.37477176	    -15.41976135	     34.01922657	     23.09177105	     76.10605789	      0.00000000	      0.00000000	     15.66094332	     -8.26290181	     29.22204697	     13.48517925	     43.67153312	      0.00000000	      0.00000000
      8.76500000	    -24.41486397	     -0.33224521	   -178.02779309	      0.25479744	      0.91568665	     -0.59874337	    -21.70976868	     -9.41973598	    -20.11164120	      3.74671602	      0.06539253	     -0.79855728	      0.00000000	      0.00000000	    -20.38372346	    -11.70392841	    -19.58869458	      5.51294198	      0.09621899	     -0.87993529	      0.00000000	      0.00000000	    -27.69581209	     -3.11000539	      3.56777173	      7.54554059	    -15.45098197	     34.04511532	     22.85218008	     79.47590467	      0.00000000	      0.00000000	     15.57814891	     -8.60193779	     30.60470151	     13.80493569	     43.95056191	      0.00000000	      0.00000000
      8.77000000	    -24.44298994	     -0.30557890	   -178.01573684	      0.25489371	      0.91570986	     -0.59881553	    -21.72943254	     -9.38072132	    -20.06177036	      3.74411292	      0.06534710	     -0.80429242	      0.00000000	      0.00000000	    -20.39770499	    -11.74368114	    -19.59642466	      5.52151272	      0.09636858	     -0.92784949	      0.00000000	      0.00000000	    -27.73878583	     -3.09467018	      3.61685860	      7.38807573	    -15.23839579	     33.28511428	     22.87062090	     77.12555824	      0.00000000	      0.00000000	     15.71273298	     -8.39121824	     29.89579493	     13.52825320	     43.79844944	      0.00000000	      0.00000000
      8.77500000	    -24.47850568	     -0.31749562	   -177.97994091	      0.25511194	      0.91569838	     -0.59890200	    -21.74205273	     -9.38297329	    -20.04598051	      3.80328147	      0.06637978	     -0.74644371	      0.00000000	      0.00000000	    -20.38379555	    -11.76566390	    -19.54437481	      5.58080029	      0.09740334	     -0.85417204	      0.00000000	      0.00000000	    -27.80405967	     -3.09773526	      3.54531796	      7.71125829	    -15.61233332	     34.99712056	     22.90927428	     79.06476752	      0.00000000	      0.00000000	     15.65207042	     -8.72953376	     31.33546909	     13.84305835	     43.88272162	      0.00000000	      0.00000000
      8.78000000	    -24.48552191	     -0.32418846	   -177.93793042	      0.25523937	      0.91565240	     -0.59896161	    -21.70333338	     -9.38122670	    -20.05736681	      3.90142743	      0.06809275	     -0.69019819	      0.00000000	      0.00000000	    -20.30600529	    -11.80594175	    -19.57117949	      5.71880725	      0.09981202	     -0.83681017	      0.00000000	      0.00000000	    -27.83270803	     -3.10111158	      3.51523799	      7.70296396	    -15.52034481	     34.58288137	     22.86583988	     79.55811197	      0.00000000	      0.00000000	     15.71342183	     -8.69277150	     31.38290036	     13.76152433	     43.01770677	      0.00000000	      0.00000000
